<svg class="svg-icon" style="width: 1em; height: 1em;vertical-align: middle;fill: currentColor;overflow: hidden;" viewBox="0 0 1024 1024" version="1.1" xmlns="http://www.w3.org/2000/svg"><path d="M904.533333 853.333333V341.333333a68.266667 68.266667 0 0 0-68.266666-68.266666h-102.4a34.133333 34.133333 0 0 1-34.133334-34.133334V136.533333a68.266667 68.266667 0 0 0-68.266666-68.266666H187.733333a68.266667 68.266667 0 0 0-68.266666 68.266666v716.8a34.133333 34.133333 0 0 1-34.133334 34.133334H34.133333a34.133333 34.133333 0 1 0 0 68.266666h955.733334a34.133333 34.133333 0 1 0 0-68.266666h-51.2a34.133333 34.133333 0 0 1-34.133334-34.133334zM324.7104 682.581333h-34.133333a34.133333 34.133333 0 0 1-34.133334-34.133333v-34.133333a34.133333 34.133333 0 0 1 34.133334-34.133334h34.133333a34.133333 34.133333 0 0 1 34.133333 34.133334v34.133333a34.133333 34.133333 0 0 1-34.133333 34.133333z m0-204.8h-34.133333a34.133333 34.133333 0 0 1-34.133334-34.133333v-34.133333a34.133333 34.133333 0 0 1 34.133334-34.133334h34.133333a34.133333 34.133333 0 0 1 34.133333 34.133334v34.133333a34.133333 34.133333 0 0 1-34.133333 34.133333z m0-204.8h-34.133333a34.133333 34.133333 0 0 1-34.133334-34.133333v-34.133333a34.133333 34.133333 0 0 1 34.133334-34.133334h34.133333a34.133333 34.133333 0 0 1 34.133333 34.133334v34.133333a34.133333 34.133333 0 0 1-34.133333 34.133333z m204.8 409.6h-34.133333a34.133333 34.133333 0 0 1-34.133334-34.133333v-34.133333a34.133333 34.133333 0 0 1 34.133334-34.133334h34.133333a34.133333 34.133333 0 0 1 34.133333 34.133334v34.133333a34.133333 34.133333 0 0 1-34.133333 34.133333z m0-204.8h-34.133333a34.133333 34.133333 0 0 1-34.133334-34.133333v-34.133333a34.133333 34.133333 0 0 1 34.133334-34.133334h34.133333a34.133333 34.133333 0 0 1 34.133333 34.133334v34.133333a34.133333 34.133333 0 0 1-34.133333 34.133333z m0-204.8h-34.133333a34.133333 34.133333 0 0 1-34.133334-34.133333v-34.133333a34.133333 34.133333 0 0 1 34.133334-34.133334h34.133333a34.133333 34.133333 0 0 1 34.133333 34.133334v34.133333a34.133333 34.133333 0 0 1-34.133333 34.133333z m238.404267 614.4h-68.266667a34.133333 34.133333 0 0 1-34.133333-34.133333v-136.533333a34.133333 34.133333 0 0 1 34.133333-34.133334h68.266667a34.133333 34.133333 0 0 1 34.133333 34.133334v136.533333a34.133333 34.133333 0 0 1-34.133333 34.133333z" fill="#040000" /></svg>