<?xml version="1.0" encoding="utf-8"?>
<!-- Svg Vector Icons : http://www.onlinewebfonts.com/icon -->
<!DOCTYPE svg PUBLIC "-//W3C//DTD SVG 1.1//EN" "http://www.w3.org/Graphics/SVG/1.1/DTD/svg11.dtd">
<svg version="1.1" xmlns="http://www.w3.org/2000/svg" xmlns:xlink="http://www.w3.org/1999/xlink" x="0px" y="0px" viewBox="0 0 1000 1000" enable-background="new 0 0 1000 1000" xml:space="preserve">
<metadata> Svg Vector Icons : http://www.onlinewebfonts.com/icon </metadata>
<g><g transform="translate(0.000000,512.000000) scale(0.100000,-0.100000)"><path d="M4797.3,4992c-504.9-84.2-950.5-457.1-1115-935.2c-36.3-105.2-44-176-49.7-468.6c-5.7-246.7-17.2-371-40.2-439.9c-93.7-290.7,21-671.3,290.7-962c55.5-61.2,99.5-137.7,135.8-233.3c28.7-78.4,68.9-170.2,88-202.7c21-34.4,36.3-95.6,36.3-147.3c0-84.2-3.8-91.8-145.4-218c-248.6-221.8-390.2-317.5-667.5-443.7C2318.6,478.4,2213.4,421,2020.2,231.7c-158.7-154.9-172.1-200.8-172.1-587.2c0-424.6,21-466.7,269.7-550.8c1447.8-495.4,4324.3-495.4,5772.1,0c248.6,84.1,269.7,126.2,269.7,550.8c0,386.3-13.4,432.2-172.1,587.2c-170.2,166.4-348.1,267.8-1004.1,568c-304.1,139.6-598.7,285-650.3,321.3c-53.6,36.3-177.9,137.7-277.3,225.7L5874,1505.4l1.9,105.2c0,74.6,19.1,147.3,72.7,265.8c91.8,212.3,97.5,223.8,223.8,373c122.4,141.5,214.2,315.6,246.7,459c30.6,133.9,26.8,353.8-7.7,441.8c-15.3,42.1-32.5,177.9-38.2,313.7c-9.6,212.3-22.9,325.1-86.1,778.4c-32.5,225.7-166.4,438-317.5,504.9c-42.1,17.2-126.2,42.1-187.5,55.5c-59.3,11.5-174,51.6-254.4,88C5286.9,5001.6,5053.6,5034.1,4797.3,4992z"/><path d="M1983.9,3932.5c-298.4-84.2-558.5-319.4-654.1-594.8c-26.8-76.5-36.3-154.9-36.3-313.7c0-137.7-11.5-250.6-30.6-325.1c-26.8-93.7-28.7-130.1-9.6-221.9c28.7-143.4,80.3-250.5,176-357.6c76.5-88,187.4-319.4,202.7-424.6c7.6-49.7-5.7-68.9-103.3-154.9c-187.4-162.6-290.7-227.6-569.9-351.9C429,952.7,210.9,820.7,142.1,690.7c-28.7-55.5-34.4-109-34.4-311.7c0-231.4,1.9-246.7,45.9-290.7c80.3-80.3,573.8-206.6,1006-256.3c99.5-11.5,218-26.8,260.1-32.5l78.4-9.6l9.6,141.5c17.2,267.8,154.9,460.9,476.2,669.4c202.7,132,361.5,210.4,893.2,443.7c233.3,103.3,424.6,193.2,424.6,200.8s-36.3,30.6-80.3,49.7c-84.2,38.3-315.6,214.2-395.9,300.3c-34.4,38.2-42.1,63.1-34.4,122.4c13.4,109,89.9,269.7,183.6,388.2c158.8,197,227.6,438,176,596.7c-11.5,38.3-30.6,170.2-40.2,294.5c-38.3,478.1-59.3,577.6-147.3,694.3c-51.6,65-175.9,133.9-246.7,135.8c-22.9,0-99.4,26.8-170.2,59.3C2389.3,3961.2,2152.2,3980.3,1983.9,3932.5z"/><path d="M7580,3932.5c-292.6-80.3-543.2-306-652.2-583.3c-34.4-84.2-70.8-482-74.6-803.3c-1.9-122.4,5.8-158.7,51.7-248.6c28.7-57.4,86.1-145.4,128.1-195.1c80.3-95.6,189.3-336.6,189.3-416.9c0-76.5-242.9-292.6-438-392.1l-101.4-51.6l455.2-214.2c464.8-218,682.8-334.7,820.5-438c271.6-204.6,382.5-386.3,399.7-644.5c3.8-68.9,9.6-132,9.6-141.5c1.9-21,281.1-1.9,556.6,38.3c468.6,68.9,853,170.2,929.5,246.7c44,44,45.9,59.3,45.9,290.7c0,202.7-5.8,256.3-34.4,311.7c-68.8,130.1-285,262-816.7,497.3c-147.3,66.9-306,147.3-353.8,177.9c-156.9,107.1-325.1,265.8-325.1,309.8c0,70.8,133.9,359.6,204.6,436.1c110.9,122.4,183.6,300.3,183.6,451.4c1.9,68.9-9.6,145.4-21,168.3c-13.4,22.9-22.9,97.5-22.9,168.3c0,68.9-13.4,235.2-30.6,369.1c-47.8,386.3-126.3,506.8-369.1,556.6c-57.4,13.4-112.8,30.6-124.3,38.3c-11.5,9.6-74.6,36.3-139.6,57.4C7912.8,3966.9,7723.5,3972.6,7580,3932.5z"/><path d="M8853.8-1459.1c-84.1-168.3-151.1-279.2-172.1-286.9c-19.1-5.7-133.9-23-254.3-40.2c-376.8-51.7-363.4-17.2-107.1-275.4l221.9-221.8l-51.7-292.6c-26.7-160.7-45.9-294.6-40.2-300.3c3.8-5.7,128.2,53.6,275.4,132l265.9,139.6l273.5-141.5c151.1-78.4,277.3-141.5,281.2-137.7c3.8,3.8-17.2,143.4-45.9,307.9l-53.6,298.3l218,216.1c172.1,174.1,208.5,219.9,181.7,229.5c-17.2,5.7-139.6,26.8-271.6,44c-132,19.1-254.4,38.3-273.5,44c-22.9,5.7-82.2,107.1-166.4,285c-72.7,151.1-133.9,275.4-137.7,275.4C8993.4-1183.7,8928.4-1308,8853.8-1459.1z"/><path d="M868.8-1765.1l-135.8-273.5l-317.5-45.9l-315.6-44l223.8-210.4c172.1-162.6,223.8-223.8,223.8-262c0-26.8-21-168.3-47.8-315.6c-26.8-145.4-47.8-267.8-47.8-271.6c0-1.9,126.2,61.2,281.2,143.4l279.2,145.4l265.9-137.7c147.3-76.5,271.6-135.8,277.3-128.1c5.7,5.7-11.5,141.5-40.2,302.2l-49.7,290.7l221.9,223.8l221.9,221.9l-141.5,21c-76.5,11.5-216.1,30.6-309.8,44l-170.2,23l-132,275.4c-72.7,151.1-135.8,273.5-139.6,273.5C1010.4-1489.7,945.3-1614,868.8-1765.1z"/><path d="M2704.9-2644.9l-135.8-273.5l-298.4-42.1c-164.5-22.9-302.2-47.8-307.9-53.5c-5.7-5.7,89.9-105.2,212.3-223.8l223.8-212.3l-45.9-258.2c-24.9-141.5-49.7-283.1-53.5-311.7c-11.5-53.5-7.7-51.6,269.7,93.7l279.2,147.3l265.9-137.7c147.3-76.5,271.6-135.8,277.3-130c5.7,5.7-13.4,143.4-40.2,304.1l-49.7,292.6l221.9,216.1c122.4,118.6,219.9,219.9,216.1,221.9c-3.8,3.8-145.4,26.8-311.7,49.7l-304.1,45.9l-132,273.5c-72.7,151.1-135.8,273.5-139.6,273.5C2846.4-2369.4,2781.4-2493.7,2704.9-2644.9z"/><path d="M7013.9-2642.9l-130.1-275.4l-304.1-44c-168.3-22.9-307.9-45.9-311.8-49.7c-3.8-1.9,93.7-103.3,216.1-221.9L6706-3450l-49.7-292.6c-26.8-160.7-45.9-298.4-40.2-304.1c5.8-5.7,130.1,53.5,277.3,128.1l264,139.6l281.1-147.3c279.3-147.3,281.2-147.3,271.6-93.7c-5.8,28.7-30.6,170.2-57.4,311.7l-45.9,258.2l219.9,206.6c120.5,114.8,218,214.2,218,221.9c0,9.6-135.8,34.4-304.1,59.3l-302.2,44l-131.9,265.9c-72.7,147.2-137.7,271.6-147.3,277.3C7151.6-2371.4,7086.6-2489.9,7013.9-2642.9z"/><path d="M4856.5-3350.6l-135.8-273.5l-309.8-45.9l-307.9-45.9l223.8-223.8l221.9-223.8l-49.7-300.3c-28.7-166.4-47.8-304.1-45.9-306c3.8-1.9,126.2,59.3,271.6,137.7c145.4,76.5,271.6,139.6,279.2,139.6s133.9-63.1,279.2-141.5c147.3-76.5,267.8-137.7,271.6-135.8c1.9,1.9-17.2,139.6-45.9,306l-49.7,300.3l221.9,223.8l223.8,223.8l-307.9,45.9l-309.9,45.9l-135.8,273.5c-76.5,151.1-141.5,273.5-147.3,273.5C4998.1-3077.1,4933.1-3199.5,4856.5-3350.6z"/></g></g>
</svg>